<?xml version="1.0" standalone="no"?>
<svg xmlns:xlink="http://www.w3.org/1999/xlink" xmlns="http://www.w3.org/2000/svg" width="200" height="200" viewBox="0 0 200 200" title="dubaicar.great-site.net" style="width: 200px; height: 200px; margin: 0px;"><rect x="0" y="0" width="200" height="200" fill="#ffffff"/><path d="M 25 25 L 31 25 L 31 31 L 25 31 L 25 25 A 0 0 0 0 1 25 25 M 31 25 L 37 25 L 37 31 L 31 31 L 31 25 M 37 25 L 43 25 L 43 31 L 37 31 L 37 25 M 43 25 L 49 25 L 49 31 L 43 31 L 43 25 M 49 25 L 55 25 L 55 31 L 49 31 L 49 25 M 55 25 L 61 25 L 61 31 L 55 31 L 55 25 M 61 25 L 67 25 A 0 0 0 0 1 67 25 L 67 31 L 61 31 L 61 25 M 73 25 L 79 25 L 79 31 L 73 31 L 73 25 A 0 0 0 0 1 73 25 M 79 25 L 85 25 L 85 31 L 79 31 L 79 25 M 85 25 L 91 25 A 0 0 0 0 1 91 25 L 91 31 L 85 31 L 85 25 M 97 25 L 103 25 L 103 31 L 97 31 A 0 0 0 0 1 97 31 L 97 25 A 0 0 0 0 1 97 25 M 103 25 L 109 25 A 0 0 0 0 1 109 25 L 109 31 L 103 31 L 103 25 M 115 25 L 121 25 L 121 31 L 115 31 A 0 0 0 0 1 115 31 L 115 25 A 0 0 0 0 1 115 25 M 121 25 L 127 25 A 0 0 0 0 1 127 25 L 127 31 L 121 31 L 121 25 M 133 25 L 139 25 L 139 31 L 133 31 L 133 25 A 0 0 0 0 1 133 25 M 139 25 L 145 25 L 145 31 L 139 31 L 139 25 M 145 25 L 151 25 L 151 31 L 145 31 L 145 25 M 151 25 L 157 25 L 157 31 L 151 31 L 151 25 M 157 25 L 163 25 L 163 31 L 157 31 L 157 25 M 163 25 L 169 25 L 169 31 L 163 31 L 163 25 M 169 25 L 175 25 A 0 0 0 0 1 175 25 L 175 31 L 169 31 L 169 25 M 25 31 L 31 31 L 31 37 L 25 37 L 25 31 M 31 31 L 31 31 L 31 31 A 0 0 0 0 1 31 31 M 61 31 L 61 31 L 61 31 A 0 0 0 0 1 61 31 M 61 31 L 67 31 L 67 37 L 61 37 L 61 31 M 73 31 L 79 31 L 79 37 L 73 37 L 73 31 M 79 31 L 85 31 L 85 37 L 79 37 L 79 31 M 85 31 L 91 31 L 91 37 L 85 37 L 85 31 M 91 37 L 91 37 L 91 37 A 0 0 0 0 1 91 37 M 103 31 L 103 31 L 103 31 A 0 0 0 0 1 103 31 M 103 31 L 109 31 L 109 37 A 0 0 0 0 1 109 37 L 103 37 A 0 0 0 0 1 103 37 L 103 31 M 121 31 L 121 31 L 121 31 A 0 0 0 0 1 121 31 M 121 37 L 121 37 L 121 37 A 0 0 0 0 1 121 37 M 121 31 L 127 31 L 127 37 L 121 37 L 121 31 M 133 31 L 139 31 L 139 37 L 133 37 L 133 31 M 139 31 L 139 31 L 139 31 A 0 0 0 0 1 139 31 M 169 31 L 169 31 L 169 31 A 0 0 0 0 1 169 31 M 169 31 L 175 31 L 175 37 L 169 37 L 169 31 M 25 37 L 31 37 L 31 43 L 25 43 L 25 37 M 37 37 L 43 37 L 43 43 L 37 43 L 37 37 A 0 0 0 0 1 37 37 M 43 37 L 49 37 L 49 43 L 43 43 L 43 37 M 49 37 L 55 37 A 0 0 0 0 1 55 37 L 55 43 L 49 43 L 49 37 M 61 37 L 67 37 L 67 43 L 61 43 L 61 37 M 73 37 L 79 37 L 79 43 L 73 43 L 73 37 M 79 37 L 79 37 L 79 37 A 0 0 0 0 1 79 37 M 85 37 L 85 37 L 85 37 A 0 0 0 0 1 85 37 M 79 43 L 79 43 L 79 43 A 0 0 0 0 1 79 43 M 85 37 L 91 37 L 91 43 L 85 43 A 0 0 0 0 1 85 43 L 85 37 M 91 37 L 97 37 A 0 0 0 0 1 97 37 L 97 43 L 91 43 L 91 37 M 115 37 L 121 37 L 121 43 L 115 43 A 0 0 0 0 1 115 43 L 115 37 A 0 0 0 0 1 115 37 M 121 37 L 127 37 L 127 43 L 121 43 L 121 37 M 133 37 L 139 37 L 139 43 L 133 43 L 133 37 M 145 37 L 151 37 L 151 43 L 145 43 L 145 37 A 0 0 0 0 1 145 37 M 151 37 L 157 37 L 157 43 L 151 43 L 151 37 M 157 37 L 163 37 A 0 0 0 0 1 163 37 L 163 43 L 157 43 L 157 37 M 169 37 L 175 37 L 175 43 L 169 43 L 169 37 M 25 43 L 31 43 L 31 49 L 25 49 L 25 43 M 37 43 L 43 43 L 43 49 L 37 49 L 37 43 M 43 43 L 49 43 L 49 49 L 43 49 L 43 43 M 49 43 L 55 43 L 55 49 L 49 49 L 49 43 M 61 43 L 67 43 L 67 49 L 61 49 L 61 43 M 73 43 L 79 43 L 79 49 L 73 49 A 0 0 0 0 1 73 49 L 73 43 M 79 43 L 85 43 A 0 0 0 0 1 85 43 L 85 49 A 0 0 0 0 1 85 49 L 79 49 L 79 43 M 91 43 L 91 43 L 91 43 A 0 0 0 0 1 91 43 M 91 43 L 97 43 L 97 49 A 0 0 0 0 1 97 49 L 91 49 A 0 0 0 0 1 91 49 L 91 43 M 103 43 L 109 43 L 109 49 L 103 49 L 103 43 A 0 0 0 0 1 103 43 M 109 43 L 115 43 A 0 0 0 0 1 115 43 L 115 49 L 109 49 L 109 43 M 121 43 L 121 43 L 121 43 A 0 0 0 0 1 121 43 M 121 49 L 121 49 L 121 49 A 0 0 0 0 1 121 49 M 115 49 L 115 49 L 115 49 A 0 0 0 0 1 115 49 M 121 43 L 127 43 L 127 49 L 121 49 L 121 43 M 133 43 L 139 43 L 139 49 L 133 49 L 133 43 M 145 43 L 151 43 L 151 49 L 145 49 L 145 43 M 151 43 L 157 43 L 157 49 L 151 49 L 151 43 M 157 43 L 163 43 L 163 49 L 157 49 L 157 43 M 169 43 L 175 43 L 175 49 L 169 49 L 169 43 M 25 49 L 31 49 L 31 55 L 25 55 L 25 49 M 37 49 L 43 49 L 43 55 L 37 55 A 0 0 0 0 1 37 55 L 37 49 M 43 49 L 49 49 L 49 55 L 43 55 L 43 49 M 49 49 L 55 49 L 55 55 A 0 0 0 0 1 55 55 L 49 55 L 49 49 M 61 49 L 67 49 L 67 55 L 61 55 L 61 49 M 103 55 L 103 55 L 103 55 A 0 0 0 0 1 103 55 M 103 49 L 109 49 L 109 55 L 103 55 L 103 49 M 109 49 L 115 49 L 115 55 L 109 55 L 109 49 M 115 49 L 121 49 L 121 55 L 115 55 L 115 49 M 121 49 L 127 49 L 127 55 L 121 55 L 121 49 M 133 49 L 139 49 L 139 55 L 133 55 L 133 49 M 145 49 L 151 49 L 151 55 L 145 55 A 0 0 0 0 1 145 55 L 145 49 M 151 49 L 157 49 L 157 55 L 151 55 L 151 49 M 157 49 L 163 49 L 163 55 A 0 0 0 0 1 163 55 L 157 55 L 157 49 M 169 49 L 175 49 L 175 55 L 169 55 L 169 49 M 25 55 L 31 55 L 31 61 L 25 61 L 25 55 M 31 61 L 31 61 L 31 61 A 0 0 0 0 1 31 61 M 61 61 L 61 61 L 61 61 A 0 0 0 0 1 61 61 M 61 55 L 67 55 L 67 61 L 61 61 L 61 55 M 73 55 L 79 55 A 0 0 0 0 1 79 55 L 79 61 L 73 61 L 73 55 A 0 0 0 0 1 73 55 M 91 55 L 97 55 L 97 61 L 91 61 A 0 0 0 0 1 91 61 L 91 55 A 0 0 0 0 1 91 55 M 97 55 L 103 55 L 103 61 L 97 61 L 97 55 M 103 55 L 109 55 L 109 61 A 0 0 0 0 1 109 61 L 103 61 L 103 55 M 109 55 L 109 55 L 109 55 A 0 0 0 0 1 109 55 M 121 55 L 121 55 L 121 55 A 0 0 0 0 1 121 55 M 121 55 L 127 55 L 127 61 L 121 61 L 121 55 M 133 55 L 139 55 L 139 61 L 133 61 L 133 55 M 139 61 L 139 61 L 139 61 A 0 0 0 0 1 139 61 M 169 61 L 169 61 L 169 61 A 0 0 0 0 1 169 61 M 169 55 L 175 55 L 175 61 L 169 61 L 169 55 M 25 61 L 31 61 L 31 67 L 25 67 A 0 0 0 0 1 25 67 L 25 61 M 31 61 L 37 61 L 37 67 L 31 67 L 31 61 M 37 61 L 43 61 L 43 67 L 37 67 L 37 61 M 43 61 L 49 61 L 49 67 L 43 67 L 43 61 M 49 61 L 55 61 L 55 67 L 49 67 L 49 61 M 55 61 L 61 61 L 61 67 L 55 67 L 55 61 M 61 61 L 67 61 L 67 67 A 0 0 0 0 1 67 67 L 61 67 L 61 61 M 73 61 L 79 61 L 79 67 A 0 0 0 0 1 79 67 L 73 67 A 0 0 0 0 1 73 67 L 73 61 M 85 61 L 91 61 A 0 0 0 0 1 91 61 L 91 67 A 0 0 0 0 1 91 67 L 85 67 A 0 0 0 0 1 85 67 L 85 61 A 0 0 0 0 1 85 61 M 97 61 L 97 61 L 97 61 A 0 0 0 0 1 97 61 M 97 61 L 103 61 L 103 67 L 97 67 L 97 61 M 103 61 L 103 61 L 103 61 A 0 0 0 0 1 103 61 M 109 61 L 115 61 A 0 0 0 0 1 115 61 L 115 67 L 109 67 L 109 61 A 0 0 0 0 1 109 61 M 121 61 L 127 61 L 127 67 L 121 67 L 121 61 M 133 61 L 139 61 L 139 67 L 133 67 A 0 0 0 0 1 133 67 L 133 61 M 139 61 L 145 61 L 145 67 L 139 67 L 139 61 M 145 61 L 151 61 L 151 67 L 145 67 L 145 61 M 151 61 L 157 61 L 157 67 L 151 67 L 151 61 M 157 61 L 163 61 L 163 67 L 157 67 L 157 61 M 163 61 L 169 61 L 169 67 L 163 67 L 163 61 M 169 61 L 175 61 L 175 67 A 0 0 0 0 1 175 67 L 169 67 L 169 61 M 79 67 L 85 67 A 0 0 0 0 1 85 67 L 85 73 A 0 0 0 0 1 85 73 L 79 73 A 0 0 0 0 1 79 73 L 79 67 A 0 0 0 0 1 79 67 M 97 67 L 103 67 L 103 73 A 0 0 0 0 1 103 73 L 97 73 A 0 0 0 0 1 97 73 L 97 67 M 109 67 L 115 67 L 115 73 L 109 73 L 109 67 M 121 67 L 127 67 L 127 73 L 121 73 L 121 67 M 25 73 L 31 73 L 31 79 L 25 79 A 0 0 0 0 1 25 79 L 25 73 A 0 0 0 0 1 25 73 M 31 73 L 37 73 A 0 0 0 0 1 37 73 L 37 79 L 31 79 L 31 73 M 37 79 L 37 79 L 37 79 A 0 0 0 0 1 37 79 M 49 73 L 55 73 L 55 79 L 49 79 A 0 0 0 0 1 49 79 L 49 73 A 0 0 0 0 1 49 73 M 55 73 L 61 73 L 61 79 L 55 79 L 55 73 M 61 73 L 67 73 A 0 0 0 0 1 67 73 L 67 79 A 0 0 0 0 1 67 79 L 61 79 L 61 73 M 91 73 L 97 73 A 0 0 0 0 1 97 73 L 97 79 A 0 0 0 0 1 97 79 L 91 79 A 0 0 0 0 1 91 79 L 91 73 A 0 0 0 0 1 91 73 M 109 73 L 115 73 L 115 79 L 109 79 L 109 73 M 121 79 L 121 79 L 121 79 A 0 0 0 0 1 121 79 M 115 79 L 115 79 L 115 79 A 0 0 0 0 1 115 79 M 121 73 L 127 73 L 127 79 L 121 79 L 121 73 M 139 73 L 145 73 A 0 0 0 0 1 145 73 L 145 79 A 0 0 0 0 1 145 79 L 139 79 A 0 0 0 0 1 139 79 L 139 73 A 0 0 0 0 1 139 73 M 151 73 L 157 73 L 157 79 L 151 79 A 0 0 0 0 1 151 79 L 151 73 A 0 0 0 0 1 151 73 M 157 73 L 163 73 L 163 79 L 157 79 L 157 73 M 163 73 L 169 73 L 169 79 L 163 79 L 163 73 M 169 73 L 175 73 A 0 0 0 0 1 175 73 L 175 79 A 0 0 0 0 1 175 79 L 169 79 L 169 73 M 31 79 L 31 79 L 31 79 A 0 0 0 0 1 31 79 M 31 85 L 31 85 L 31 85 A 0 0 0 0 1 31 85 M 31 79 L 37 79 L 37 85 L 31 85 L 31 79 M 37 79 L 43 79 L 43 85 L 37 85 L 37 79 M 43 79 L 49 79 A 0 0 0 0 1 49 79 L 49 85 A 0 0 0 0 1 49 85 L 43 85 L 43 79 M 79 79 L 85 79 L 85 85 L 79 85 A 0 0 0 0 1 79 85 L 79 79 A 0 0 0 0 1 79 79 M 85 79 L 91 79 A 0 0 0 0 1 91 79 L 91 85 A 0 0 0 0 1 91 85 L 85 85 L 85 79 M 97 85 L 97 85 L 97 85 A 0 0 0 0 1 97 85 M 97 79 L 103 79 A 0 0 0 0 1 103 79 L 103 85 L 97 85 L 97 79 A 0 0 0 0 1 97 79 M 109 85 L 109 85 L 109 85 A 0 0 0 0 1 109 85 M 103 85 L 103 85 L 103 85 A 0 0 0 0 1 103 85 M 109 79 L 115 79 L 115 85 L 109 85 L 109 79 M 115 79 L 121 79 L 121 85 L 115 85 L 115 79 M 121 79 L 127 79 L 127 85 A 0 0 0 0 1 127 85 L 121 85 L 121 79 M 145 79 L 151 79 A 0 0 0 0 1 151 79 L 151 85 L 145 85 L 145 79 A 0 0 0 0 1 145 79 M 151 85 L 151 85 L 151 85 A 0 0 0 0 1 151 85 M 25 85 L 31 85 L 31 91 L 25 91 L 25 85 A 0 0 0 0 1 25 85 M 31 85 L 37 85 L 37 91 L 31 91 L 31 85 M 37 85 L 43 85 L 43 91 A 0 0 0 0 1 43 91 L 37 91 L 37 85 M 43 85 L 43 85 L 43 85 A 0 0 0 0 1 43 85 M 61 85 L 67 85 L 67 91 L 61 91 A 0 0 0 0 1 61 91 L 61 85 A 0 0 0 0 1 61 85 M 67 85 L 73 85 A 0 0 0 0 1 73 85 L 73 91 L 67 91 L 67 85 M 73 91 L 73 91 L 73 91 A 0 0 0 0 1 73 91 M 91 91 L 91 91 L 91 91 A 0 0 0 0 1 91 91 M 91 85 L 97 85 L 97 91 L 91 91 L 91 85 A 0 0 0 0 1 91 85 M 97 85 L 103 85 L 103 91 L 97 91 L 97 85 M 103 85 L 109 85 L 109 91 L 103 91 L 103 85 M 109 85 L 115 85 L 115 91 L 109 91 L 109 85 M 115 85 L 121 85 L 121 91 L 115 91 L 115 85 M 121 85 L 121 85 L 121 85 A 0 0 0 0 1 121 85 M 145 91 L 145 91 L 145 91 A 0 0 0 0 1 145 91 M 145 85 L 151 85 L 151 91 L 145 91 L 145 85 M 151 85 L 157 85 A 0 0 0 0 1 157 85 L 157 91 A 0 0 0 0 1 157 91 L 151 91 L 151 85 M 25 91 L 31 91 L 31 97 L 25 97 A 0 0 0 0 1 25 97 L 25 91 M 31 91 L 37 91 L 37 97 A 0 0 0 0 1 37 97 L 31 97 L 31 91 M 37 91 L 37 91 L 37 91 A 0 0 0 0 1 37 91 M 43 91 L 49 91 L 49 97 L 43 97 L 43 91 A 0 0 0 0 1 43 91 M 49 91 L 55 91 A 0 0 0 0 1 55 91 L 55 97 A 0 0 0 0 1 55 97 L 49 97 L 49 91 M 67 91 L 67 91 L 67 91 A 0 0 0 0 1 67 91 M 67 97 L 67 97 L 67 97 A 0 0 0 0 1 67 97 M 67 91 L 73 91 L 73 97 L 67 97 L 67 91 M 73 91 L 79 91 A 0 0 0 0 1 79 91 L 79 97 L 73 97 L 73 91 M 85 91 L 91 91 L 91 97 L 85 97 L 85 91 A 0 0 0 0 1 85 91 M 91 91 L 97 91 L 97 97 A 0 0 0 0 1 97 97 L 91 97 L 91 91 M 97 91 L 97 91 L 97 91 A 0 0 0 0 1 97 91 M 115 91 L 115 91 L 115 91 A 0 0 0 0 1 115 91 M 115 91 L 121 91 L 121 97 L 115 97 L 115 91 M 133 97 L 133 97 L 133 97 A 0 0 0 0 1 133 97 M 133 91 L 139 91 L 139 97 L 133 97 L 133 91 A 0 0 0 0 1 133 91 M 139 91 L 145 91 L 145 97 L 139 97 L 139 91 M 145 91 L 151 91 L 151 97 A 0 0 0 0 1 151 97 L 145 97 L 145 91 M 151 91 L 151 91 L 151 91 A 0 0 0 0 1 151 91 M 157 91 L 163 91 A 0 0 0 0 1 163 91 L 163 97 L 157 97 L 157 91 A 0 0 0 0 1 157 91 M 163 97 L 163 97 L 163 97 A 0 0 0 0 1 163 97 M 43 103 L 43 103 L 43 103 A 0 0 0 0 1 43 103 M 43 97 L 49 97 L 49 103 L 43 103 L 43 97 M 49 97 L 49 97 L 49 97 A 0 0 0 0 1 49 97 M 61 97 L 67 97 L 67 103 L 61 103 A 0 0 0 0 1 61 103 L 61 97 A 0 0 0 0 1 61 97 M 67 97 L 73 97 L 73 103 L 67 103 L 67 97 M 73 97 L 79 97 L 79 103 L 73 103 L 73 97 M 79 103 L 79 103 L 79 103 A 0 0 0 0 1 79 103 M 85 97 L 91 97 L 91 103 A 0 0 0 0 1 91 103 L 85 103 A 0 0 0 0 1 85 103 L 85 97 M 91 97 L 91 97 L 91 97 A 0 0 0 0 1 91 97 M 97 97 L 103 97 A 0 0 0 0 1 103 97 L 103 103 A 0 0 0 0 1 103 103 L 97 103 A 0 0 0 0 1 97 103 L 97 97 A 0 0 0 0 1 97 97 M 115 103 L 115 103 L 115 103 A 0 0 0 0 1 115 103 M 115 97 L 121 97 L 121 103 L 115 103 L 115 97 M 127 97 L 133 97 L 133 103 L 127 103 L 127 97 A 0 0 0 0 1 127 97 M 133 97 L 139 97 L 139 103 L 133 103 L 133 97 M 139 97 L 145 97 L 145 103 L 139 103 L 139 97 M 145 97 L 145 97 L 145 97 A 0 0 0 0 1 145 97 M 145 103 L 145 103 L 145 103 A 0 0 0 0 1 145 103 M 157 97 L 163 97 L 163 103 L 157 103 A 0 0 0 0 1 157 103 L 157 97 M 163 97 L 169 97 L 169 103 L 163 103 L 163 97 M 169 97 L 175 97 A 0 0 0 0 1 175 97 L 175 103 A 0 0 0 0 1 175 103 L 169 103 L 169 97 M 25 103 L 31 103 A 0 0 0 0 1 31 103 L 31 109 A 0 0 0 0 1 31 109 L 25 109 A 0 0 0 0 1 25 109 L 25 103 A 0 0 0 0 1 25 103 M 37 103 L 43 103 L 43 109 L 37 109 A 0 0 0 0 1 37 109 L 37 103 A 0 0 0 0 1 37 103 M 43 103 L 49 103 L 49 109 A 0 0 0 0 1 49 109 L 43 109 L 43 103 M 67 103 L 67 103 L 67 103 A 0 0 0 0 1 67 103 M 67 103 L 73 103 L 73 109 L 67 109 A 0 0 0 0 1 67 109 L 67 103 M 73 103 L 79 103 L 79 109 L 73 109 L 73 103 M 79 103 L 85 103 A 0 0 0 0 1 85 103 L 85 109 L 79 109 L 79 103 M 85 109 L 85 109 L 85 109 A 0 0 0 0 1 85 109 M 109 109 L 109 109 L 109 109 A 0 0 0 0 1 109 109 M 109 103 L 115 103 L 115 109 L 109 109 L 109 103 A 0 0 0 0 1 109 103 M 115 103 L 121 103 L 121 109 L 115 109 L 115 103 M 127 109 L 127 109 L 127 109 A 0 0 0 0 1 127 109 M 121 109 L 121 109 L 121 109 A 0 0 0 0 1 121 109 M 127 103 L 133 103 L 133 109 L 127 109 L 127 103 M 133 103 L 133 103 L 133 103 A 0 0 0 0 1 133 103 M 139 103 L 139 103 L 139 103 A 0 0 0 0 1 139 103 M 139 103 L 145 103 L 145 109 L 139 109 A 0 0 0 0 1 139 109 L 139 103 M 145 103 L 151 103 A 0 0 0 0 1 151 103 L 151 109 L 145 109 L 145 103 M 163 103 L 163 103 L 163 103 A 0 0 0 0 1 163 103 M 163 103 L 169 103 L 169 109 A 0 0 0 0 1 169 109 L 163 109 A 0 0 0 0 1 163 109 L 163 103 M 169 103 L 169 103 L 169 103 A 0 0 0 0 1 169 103 M 49 115 L 49 115 L 49 115 A 0 0 0 0 1 49 115 M 49 109 L 55 109 L 55 115 L 49 115 L 49 109 A 0 0 0 0 1 49 109 M 55 109 L 61 109 L 61 115 L 55 115 L 55 109 M 61 109 L 67 109 A 0 0 0 0 1 67 109 L 67 115 A 0 0 0 0 1 67 115 L 61 115 L 61 109 M 79 109 L 79 109 L 79 109 A 0 0 0 0 1 79 109 M 79 109 L 85 109 L 85 115 L 79 115 L 79 109 M 85 109 L 91 109 A 0 0 0 0 1 91 109 L 91 115 L 85 115 L 85 109 M 103 109 L 109 109 L 109 115 L 103 115 A 0 0 0 0 1 103 115 L 103 109 A 0 0 0 0 1 103 109 M 109 109 L 115 109 L 115 115 L 109 115 L 109 109 M 115 109 L 121 109 L 121 115 L 115 115 L 115 109 M 121 109 L 127 109 L 127 115 L 121 115 L 121 109 M 127 109 L 133 109 L 133 115 L 127 115 L 127 109 M 133 115 L 133 115 L 133 115 A 0 0 0 0 1 133 115 M 145 109 L 145 109 L 145 109 A 0 0 0 0 1 145 109 M 145 109 L 151 109 L 151 115 A 0 0 0 0 1 151 115 L 145 115 A 0 0 0 0 1 145 115 L 145 109 M 157 109 L 163 109 A 0 0 0 0 1 163 109 L 163 115 L 157 115 L 157 109 A 0 0 0 0 1 157 109 M 163 115 L 163 115 L 163 115 A 0 0 0 0 1 163 115 M 43 115 L 49 115 L 49 121 L 43 121 A 0 0 0 0 1 43 121 L 43 115 A 0 0 0 0 1 43 115 M 49 115 L 55 115 L 55 121 A 0 0 0 0 1 55 121 L 49 121 L 49 115 M 55 115 L 55 115 L 55 115 A 0 0 0 0 1 55 115 M 67 121 L 67 121 L 67 121 A 0 0 0 0 1 67 121 M 67 115 L 73 115 A 0 0 0 0 1 73 115 L 73 121 L 67 121 L 67 115 A 0 0 0 0 1 67 115 M 73 121 L 73 121 L 73 121 A 0 0 0 0 1 73 121 M 79 115 L 85 115 L 85 121 L 79 121 A 0 0 0 0 1 79 121 L 79 115 M 85 115 L 91 115 L 91 121 L 85 121 L 85 115 M 91 121 L 91 121 L 91 121 A 0 0 0 0 1 91 121 M 97 115 L 103 115 A 0 0 0 0 1 103 115 L 103 121 A 0 0 0 0 1 103 121 L 97 121 A 0 0 0 0 1 97 121 L 97 115 A 0 0 0 0 1 97 115 M 115 115 L 115 115 L 115 115 A 0 0 0 0 1 115 115 M 115 115 L 121 115 L 121 121 A 0 0 0 0 1 121 121 L 115 121 A 0 0 0 0 1 115 121 L 115 115 M 121 115 L 121 115 L 121 115 A 0 0 0 0 1 121 115 M 127 115 L 127 115 L 127 115 A 0 0 0 0 1 127 115 M 127 121 L 127 121 L 127 121 A 0 0 0 0 1 127 121 M 127 115 L 133 115 L 133 121 L 127 121 L 127 115 M 133 115 L 139 115 A 0 0 0 0 1 139 115 L 139 121 L 133 121 L 133 115 M 139 121 L 139 121 L 139 121 A 0 0 0 0 1 139 121 M 157 115 L 163 115 L 163 121 L 157 121 L 157 115 M 163 115 L 169 115 A 0 0 0 0 1 169 115 L 169 121 L 163 121 L 163 115 M 169 121 L 169 121 L 169 121 A 0 0 0 0 1 169 121 M 25 121 L 31 121 L 31 127 L 25 127 A 0 0 0 0 1 25 127 L 25 121 A 0 0 0 0 1 25 121 M 31 121 L 37 121 L 37 127 L 31 127 L 31 121 M 37 121 L 43 121 A 0 0 0 0 1 43 121 L 43 127 A 0 0 0 0 1 43 127 L 37 127 L 37 121 M 55 121 L 61 121 L 61 127 L 55 127 A 0 0 0 0 1 55 127 L 55 121 A 0 0 0 0 1 55 121 M 61 121 L 67 121 L 67 127 L 61 127 L 61 121 M 67 121 L 73 121 L 73 127 L 67 127 L 67 121 M 73 121 L 79 121 A 0 0 0 0 1 79 121 L 79 127 L 73 127 L 73 121 M 85 121 L 85 121 L 85 121 A 0 0 0 0 1 85 121 M 85 121 L 91 121 L 91 127 L 85 127 A 0 0 0 0 1 85 127 L 85 121 M 91 121 L 97 121 A 0 0 0 0 1 97 121 L 97 127 A 0 0 0 0 1 97 127 L 91 127 L 91 121 M 121 127 L 121 127 L 121 127 A 0 0 0 0 1 121 127 M 121 121 L 127 121 L 127 127 L 121 127 L 121 121 A 0 0 0 0 1 121 121 M 127 121 L 133 121 L 133 127 L 127 127 L 127 121 M 133 121 L 139 121 L 139 127 L 133 127 L 133 121 M 139 121 L 145 121 L 145 127 L 139 127 L 139 121 M 145 121 L 151 121 A 0 0 0 0 1 151 121 L 151 127 L 145 127 L 145 121 M 157 121 L 163 121 L 163 127 L 157 127 L 157 121 M 163 121 L 169 121 L 169 127 L 163 127 L 163 121 M 169 121 L 175 121 A 0 0 0 0 1 175 121 L 175 127 A 0 0 0 0 1 175 127 L 169 127 L 169 121 M 73 127 L 73 127 L 73 127 A 0 0 0 0 1 73 127 M 73 127 L 79 127 L 79 133 A 0 0 0 0 1 79 133 L 73 133 A 0 0 0 0 1 73 133 L 73 127 M 97 133 L 97 133 L 97 133 A 0 0 0 0 1 97 133 M 97 127 L 103 127 L 103 133 L 97 133 L 97 127 A 0 0 0 0 1 97 127 M 103 127 L 109 127 L 109 133 L 103 133 L 103 127 M 109 127 L 115 127 L 115 133 L 109 133 L 109 127 M 115 127 L 121 127 L 121 133 L 115 133 L 115 127 M 121 127 L 127 127 L 127 133 L 121 133 L 121 127 M 127 127 L 127 127 L 127 127 A 0 0 0 0 1 127 127 M 145 127 L 145 127 L 145 127 A 0 0 0 0 1 145 127 M 145 127 L 151 127 L 151 133 L 145 133 L 145 127 M 157 127 L 163 127 L 163 133 L 157 133 L 157 127 M 163 127 L 163 127 L 163 127 A 0 0 0 0 1 163 127 M 25 133 L 31 133 L 31 139 L 25 139 L 25 133 A 0 0 0 0 1 25 133 M 31 133 L 37 133 L 37 139 L 31 139 L 31 133 M 37 133 L 43 133 L 43 139 L 37 139 L 37 133 M 43 133 L 49 133 L 49 139 L 43 139 L 43 133 M 49 133 L 55 133 L 55 139 L 49 139 L 49 133 M 55 133 L 61 133 L 61 139 L 55 139 L 55 133 M 61 133 L 67 133 A 0 0 0 0 1 67 133 L 67 139 L 61 139 L 61 133 M 79 133 L 85 133 A 0 0 0 0 1 85 133 L 85 139 A 0 0 0 0 1 85 139 L 79 139 A 0 0 0 0 1 79 139 L 79 133 A 0 0 0 0 1 79 133 M 91 139 L 91 139 L 91 139 A 0 0 0 0 1 91 139 M 91 133 L 97 133 L 97 139 L 91 139 L 91 133 A 0 0 0 0 1 91 133 M 97 133 L 103 133 L 103 139 A 0 0 0 0 1 103 139 L 97 139 L 97 133 M 103 133 L 103 133 L 103 133 A 0 0 0 0 1 103 133 M 109 133 L 109 133 L 109 133 A 0 0 0 0 1 109 133 M 109 133 L 115 133 L 115 139 L 109 139 L 109 133 M 115 133 L 115 133 L 115 133 A 0 0 0 0 1 115 133 M 121 133 L 121 133 L 121 133 A 0 0 0 0 1 121 133 M 121 133 L 127 133 L 127 139 L 121 139 L 121 133 M 133 133 L 139 133 A 0 0 0 0 1 139 133 L 139 139 A 0 0 0 0 1 139 139 L 133 139 A 0 0 0 0 1 133 139 L 133 133 A 0 0 0 0 1 133 133 M 145 133 L 151 133 L 151 139 L 145 139 L 145 133 M 157 133 L 163 133 L 163 139 L 157 139 L 157 133 M 25 139 L 31 139 L 31 145 L 25 145 L 25 139 M 31 139 L 31 139 L 31 139 A 0 0 0 0 1 31 139 M 61 139 L 61 139 L 61 139 A 0 0 0 0 1 61 139 M 61 139 L 67 139 L 67 145 L 61 145 L 61 139 M 73 139 L 79 139 A 0 0 0 0 1 79 139 L 79 145 L 73 145 L 73 139 A 0 0 0 0 1 73 139 M 85 145 L 85 145 L 85 145 A 0 0 0 0 1 85 145 M 79 145 L 79 145 L 79 145 A 0 0 0 0 1 79 145 M 85 139 L 91 139 L 91 145 L 85 145 L 85 139 A 0 0 0 0 1 85 139 M 91 139 L 97 139 L 97 145 A 0 0 0 0 1 97 145 L 91 145 L 91 139 M 97 139 L 97 139 L 97 139 A 0 0 0 0 1 97 139 M 109 139 L 115 139 L 115 145 A 0 0 0 0 1 115 145 L 109 145 A 0 0 0 0 1 109 145 L 109 139 M 121 139 L 127 139 L 127 145 L 121 145 L 121 139 M 127 145 L 127 145 L 127 145 A 0 0 0 0 1 127 145 M 145 145 L 145 145 L 145 145 A 0 0 0 0 1 145 145 M 145 139 L 151 139 L 151 145 L 145 145 L 145 139 M 157 139 L 163 139 L 163 145 L 157 145 L 157 139 M 169 145 L 169 145 L 169 145 A 0 0 0 0 1 169 145 M 163 145 L 163 145 L 163 145 A 0 0 0 0 1 163 145 M 169 139 L 175 139 A 0 0 0 0 1 175 139 L 175 145 L 169 145 L 169 139 A 0 0 0 0 1 169 139 M 25 145 L 31 145 L 31 151 L 25 151 L 25 145 M 37 145 L 43 145 L 43 151 L 37 151 L 37 145 A 0 0 0 0 1 37 145 M 43 145 L 49 145 L 49 151 L 43 151 L 43 145 M 49 145 L 55 145 A 0 0 0 0 1 55 145 L 55 151 L 49 151 L 49 145 M 61 145 L 67 145 L 67 151 L 61 151 L 61 145 M 73 145 L 79 145 L 79 151 L 73 151 A 0 0 0 0 1 73 151 L 73 145 M 79 145 L 85 145 L 85 151 L 79 151 L 79 145 M 85 145 L 91 145 L 91 151 A 0 0 0 0 1 91 151 L 85 151 L 85 145 M 91 145 L 91 145 L 91 145 A 0 0 0 0 1 91 145 M 97 145 L 103 145 A 0 0 0 0 1 103 145 L 103 151 A 0 0 0 0 1 103 151 L 97 151 A 0 0 0 0 1 97 151 L 97 145 A 0 0 0 0 1 97 145 M 121 145 L 127 145 L 127 151 L 121 151 A 0 0 0 0 1 121 151 L 121 145 M 127 145 L 133 145 L 133 151 L 127 151 L 127 145 M 133 145 L 139 145 L 139 151 L 133 151 L 133 145 M 139 145 L 145 145 L 145 151 L 139 151 L 139 145 M 145 145 L 151 145 L 151 151 A 0 0 0 0 1 151 151 L 145 151 L 145 145 M 157 145 L 163 145 L 163 151 L 157 151 A 0 0 0 0 1 157 151 L 157 145 M 163 145 L 169 145 L 169 151 L 163 151 L 163 145 M 169 145 L 175 145 L 175 151 L 169 151 L 169 145 M 25 151 L 31 151 L 31 157 L 25 157 L 25 151 M 37 151 L 43 151 L 43 157 L 37 157 L 37 151 M 43 151 L 49 151 L 49 157 L 43 157 L 43 151 M 49 151 L 55 151 L 55 157 L 49 157 L 49 151 M 61 151 L 67 151 L 67 157 L 61 157 L 61 151 M 103 151 L 109 151 A 0 0 0 0 1 109 151 L 109 157 A 0 0 0 0 1 109 157 L 103 157 A 0 0 0 0 1 103 157 L 103 151 A 0 0 0 0 1 103 151 M 115 157 L 115 157 L 115 157 A 0 0 0 0 1 115 157 M 115 151 L 121 151 A 0 0 0 0 1 121 151 L 121 157 L 115 157 L 115 151 A 0 0 0 0 1 115 151 M 127 151 L 127 151 L 127 151 A 0 0 0 0 1 127 151 M 127 157 L 127 157 L 127 157 A 0 0 0 0 1 127 157 M 121 157 L 121 157 L 121 157 A 0 0 0 0 1 121 157 M 127 151 L 133 151 L 133 157 L 127 157 L 127 151 M 133 151 L 139 151 L 139 157 L 133 157 L 133 151 M 139 151 L 139 151 L 139 151 A 0 0 0 0 1 139 151 M 139 157 L 139 157 L 139 157 A 0 0 0 0 1 139 157 M 163 151 L 163 151 L 163 151 A 0 0 0 0 1 163 151 M 163 151 L 169 151 L 169 157 L 163 157 L 163 151 M 169 151 L 175 151 L 175 157 A 0 0 0 0 1 175 157 L 169 157 L 169 151 M 25 157 L 31 157 L 31 163 L 25 163 L 25 157 M 37 157 L 43 157 L 43 163 L 37 163 A 0 0 0 0 1 37 163 L 37 157 M 43 157 L 49 157 L 49 163 L 43 163 L 43 157 M 49 157 L 55 157 L 55 163 A 0 0 0 0 1 55 163 L 49 163 L 49 157 M 61 157 L 67 157 L 67 163 L 61 163 L 61 157 M 85 157 L 91 157 A 0 0 0 0 1 91 157 L 91 163 A 0 0 0 0 1 91 163 L 85 163 A 0 0 0 0 1 85 163 L 85 157 A 0 0 0 0 1 85 157 M 109 157 L 115 157 L 115 163 L 109 163 A 0 0 0 0 1 109 163 L 109 157 A 0 0 0 0 1 109 157 M 115 157 L 121 157 L 121 163 L 115 163 L 115 157 M 121 157 L 127 157 L 127 163 L 121 163 L 121 157 M 127 157 L 133 157 L 133 163 L 127 163 L 127 157 M 133 157 L 139 157 L 139 163 L 133 163 L 133 157 M 139 157 L 145 157 A 0 0 0 0 1 145 157 L 145 163 L 139 163 L 139 157 M 163 163 L 163 163 L 163 163 A 0 0 0 0 1 163 163 M 163 157 L 169 157 L 169 163 L 163 163 L 163 157 M 169 157 L 169 157 L 169 157 A 0 0 0 0 1 169 157 M 25 163 L 31 163 L 31 169 L 25 169 L 25 163 M 31 169 L 31 169 L 31 169 A 0 0 0 0 1 31 169 M 61 169 L 61 169 L 61 169 A 0 0 0 0 1 61 169 M 61 163 L 67 163 L 67 169 L 61 169 L 61 163 M 73 163 L 79 163 A 0 0 0 0 1 79 163 L 79 169 L 73 169 L 73 163 A 0 0 0 0 1 73 163 M 97 169 L 97 169 L 97 169 A 0 0 0 0 1 97 169 M 97 163 L 103 163 A 0 0 0 0 1 103 163 L 103 169 L 97 169 L 97 163 A 0 0 0 0 1 97 163 M 103 169 L 103 169 L 103 169 A 0 0 0 0 1 103 169 M 115 163 L 115 163 L 115 163 A 0 0 0 0 1 115 163 M 115 169 L 115 169 L 115 169 A 0 0 0 0 1 115 169 M 115 163 L 121 163 L 121 169 L 115 169 L 115 163 M 121 163 L 121 163 L 121 163 A 0 0 0 0 1 121 163 M 139 163 L 139 163 L 139 163 A 0 0 0 0 1 139 163 M 139 169 L 139 169 L 139 169 A 0 0 0 0 1 139 169 M 139 163 L 145 163 L 145 169 L 139 169 L 139 163 M 145 169 L 145 169 L 145 169 A 0 0 0 0 1 145 169 M 157 163 L 163 163 L 163 169 L 157 169 L 157 163 A 0 0 0 0 1 157 163 M 163 163 L 169 163 L 169 169 L 163 169 L 163 163 M 169 169 L 169 169 L 169 169 A 0 0 0 0 1 169 169 M 25 169 L 31 169 L 31 175 L 25 175 A 0 0 0 0 1 25 175 L 25 169 M 31 169 L 37 169 L 37 175 L 31 175 L 31 169 M 37 169 L 43 169 L 43 175 L 37 175 L 37 169 M 43 169 L 49 169 L 49 175 L 43 175 L 43 169 M 49 169 L 55 169 L 55 175 L 49 175 L 49 169 M 55 169 L 61 169 L 61 175 L 55 175 L 55 169 M 61 169 L 67 169 L 67 175 A 0 0 0 0 1 67 175 L 61 175 L 61 169 M 73 169 L 79 169 L 79 175 A 0 0 0 0 1 79 175 L 73 175 A 0 0 0 0 1 73 175 L 73 169 M 91 169 L 97 169 L 97 175 L 91 175 A 0 0 0 0 1 91 175 L 91 169 A 0 0 0 0 1 91 169 M 97 169 L 103 169 L 103 175 L 97 175 L 97 169 M 103 169 L 109 169 L 109 175 L 103 175 L 103 169 M 109 169 L 115 169 L 115 175 L 109 175 L 109 169 M 115 169 L 121 169 L 121 175 A 0 0 0 0 1 121 175 L 115 175 L 115 169 M 127 169 L 133 169 L 133 175 L 127 175 A 0 0 0 0 1 127 175 L 127 169 A 0 0 0 0 1 127 169 M 133 169 L 139 169 L 139 175 L 133 175 L 133 169 M 139 169 L 145 169 L 145 175 L 139 175 L 139 169 M 145 169 L 151 169 A 0 0 0 0 1 151 169 L 151 175 A 0 0 0 0 1 151 175 L 145 175 L 145 169 M 157 169 L 163 169 L 163 175 L 157 175 A 0 0 0 0 1 157 175 L 157 169 M 163 169 L 169 169 L 169 175 L 163 175 L 163 169 M 169 169 L 175 169 A 0 0 0 0 1 175 169 L 175 175 A 0 0 0 0 1 175 175 L 169 175 L 169 169 " fill="#000000"/></svg>